<svg width="434" height="444" viewBox="0 0 434 444" xmlns="http://www.w3.org/2000/svg">
  <path d="M377.35 310.37c17.7-5.47 30.6-21.9 30.6-41.35 0-3.97-.56-7.92-1.67-11.77 16.37-6.27 27.72-22.04 27.72-40.3 0-10.25-3.64-20.04-10.06-27.74 6.3-6.4 10.06-15.1 10.06-24.3 0-10.6-4.9-20.4-12.92-26.9 2.75-5 4.24-10.7 4.24-16.5 0-19.1-15.57-34.7-34.72-34.7 0-23.9-19.47-43.4-43.4-43.4-3.2 0-6.4.4-9.5 1.1-3.5-15.5-17.36-27.1-33.9-27.1-5.35 0-10.5 1.2-15.16 3.5C280.9 8.2 267 0 251.72 0c-14.18 0-26.8 6.84-34.72 17.38C209.08 6.84 196.46 0 182.28 0 167 0 153.1 8.18 145.36 20.84c-4.66-2.3-9.8-3.48-15.16-3.48-16.54 0-30.4 11.62-33.9 27.12-3.1-.72-6.3-1.1-9.5-1.1-23.93 0-43.4 19.47-43.4 43.4-19.15 0-34.72 15.57-34.72 34.7 0 5.8 1.48 11.47 4.24 16.5C4.92 144.45 0 154.3 0 164.88c0 9.2 3.74 17.93 10.07 24.33C3.64 197 0 206.7 0 217c0 18.26 11.34 34.02 27.73 40.3-1.12 3.85-1.7 7.8-1.7 11.77 0 16.76 9.6 31.3 23.84 38.5l.34.16c2.8 1.4 6.7 2.48 10.9 3.3L56 306.8c-1.86-1.5-2.93-6.8-2.93-9.16v-15.2c0-4.1 3.1-10.57 7.2-10.97l7.3-.72c1.04-3.1 3.3-3.9 4.76-6.36 1.88-3.2 3.87-6 5.9-8.5l.2-64.9c0-5.9 1.15-11.6 3.4-16.9.9-2.1 2-4.1 3.26-5.9l1.1-1.5c1-1.3 2-2.5 3.2-3.7.4-.5.9-1 1.3-1.4 1.5-1.4 3.1-2.6 4.8-3.7l.3-.3c1.8-1.2 3.8-2.1 5.8-3 .6-.3 1.2-.5 1.8-.7 1.5-.5 3.1-1 4.6-1.3.7-.2 1.4-.3 2.1-.4 1.9-.4 3.8-.5 5.7-.6.36 0 .7-.1 1.1-.1 1.5 0 3.06.2 4.6.4 1.03.1 2.03.1 3.06.2 2.57.46 5.15 1.1 7.7 2.05 13.26 4.8 38.7 10.5 84.7 10.5 28.75 0 49.5-2.24 64.2-5.08 8.84-1.7 15.5-3.6 20.5-5.4.64-.25 1.3-.3 1.94-.5 15.78-4.9 32.08-.7 42.1 10 2.77 2.93 5.16 6.25 6.8 10.1 2.3 5.35 3.4 11.03 3.4 16.9v59.55c3.2 2.66 6.35 6.2 9.13 10.86 1.5 2.47 2.7 5.3 3.8 8.4l7.25.7c4.1.4 7.2 3.86 7.2 7.96v19.2c0 2.4-1.06 8.7-2.9 10.2l-3.2 2.6zm-81.3 82.23c-8.77-15.95-35.04-24.58-43.63-27.03-.9-.3-5.96-1.24-7.63-1.24-7.9 0-18.9-.17-26.6 2.4-7.8-2.57-18.7-2.4-26.6-2.4-1.7 0-6.8.94-7.7 1.24-8.6 2.45-34.9 11.08-43.7 27.02-10.6 19.1 5.2 3.3 5.2 3.3s-11.5 20.6-6.3 26.8c5.2 6.2 10.5-4.9 10.5-4.9s-8.2 19.1 2.9 24.4c11 5.3 5.7-5.2 22.5-11 11.3-3.9 31.1-17 42.8-32 11.7 15 31.5 28.1 42.8 31.9 16.75 5.7 11.5 16.2 22.5 10.9 11.02-5.3 2.9-24.5 2.9-24.5s5.3 11.1 10.53 4.8c5.23-6.24-6.27-26.83-6.27-26.83s15.86 15.8 5.3-3.35z"/>
  <path d="M315.2 359.27c-20.65 0-59.1 0-74.6-24.64-3.77-6-6.42-12.5-8.2-19l-7.1-8.86c-2.6-3.23-2.06-7.95 1.17-10.54.87-.7 1.85-1.16 2.86-1.42v-.1c-7.23-2.2-14.97-2.2-22.2 0v.2c1.02.3 2 .8 2.87 1.5 3.23 2.6 3.75 7.3 1.16 10.6l-7.08 8.9c-1.8 6.5-4.44 13-8.22 19-15.5 24.6-53.94 24.6-74.58 24.6-33.32 0-43.2-13.4-46.1-21.5-1.9-5.2-3.28-16.5-3.12-29l-6.3-5.1C64 302.2 63 300 63 297.8v-12.4c0-3.88 2.92-7.1 6.76-7.48l6.84-.67c1-2.9 2.17-5.57 3.54-7.88 8.97-15.03 21.7-18.46 28.04-18.13h39.64c.6 0 14.4.26 25.98 1.9 3.54.52 6.86 1.27 9.9 2.25h69.06c3.05-1 6.37-1.8 9.9-2.3 11.6-1.7 25.4-1.9 25.98-1.9h39.66c6.34-.4 19.05 3.1 28.02 18.1 1.38 2.3 2.56 4.9 3.54 7.9l6.85.7c3.9.4 6.8 3.6 6.8 7.4v12.4c0 2.2-1 4.4-2.7 5.8l-6.3 5.1c.2 12.4-1.2 23.8-3.1 29-2.9 8-12.8 21.4-46.1 21.4zm-68.66-48.62c1.4 5.44 3.57 10.92 6.76 16 11.1 17.62 44.14 17.62 61.9 17.62 17.4 0 29.36-4.34 32-11.6 1.58-4.34 2.6-15.17 2.22-26.5-.06-.42-.07-.85-.05-1.27-.28-6.28-1-12.66-2.3-18.1-.17-.5-.3-1-.37-1.54-.86-3.2-1.93-6-3.25-8.22-6.17-10.33-13.47-10.8-14.46-10.83-.3.1-.2.1-.5.1h-39.7c-1 0-13.8.3-24.1 1.8-3 .4-5.7 1.1-8.1 1.9-.1.1-.3.1-.4.2-5.6 2-9.6 4.9-10.5 8-.8 2.5-1.4 6.4-1.6 11 0 .5 0 1.1-.1 1.6-.2 5.7.3 12.5 2 19.3.1.3.1.6.2.8zm-159.5-4.48c-.37 11.33.65 22.16 2.23 26.5 2.64 7.26 14.6 11.6 32 11.6 17.76 0 50.8 0 61.9-17.63 3.2-5.07 5.35-10.55 6.76-16l.2-.77c1.7-6.87 2.2-13.62 2.06-19.34-.1-.5-.1-1.03-.1-1.54-.2-4.7-.9-8.5-1.6-11-.9-3.1-4.9-6.1-10.5-8l-.4-.2c-2.5-.9-5.2-1.5-8.1-1.9-10.3-1.5-23.1-1.8-24.1-1.8h-40.1c-1 0-8.3.5-14.5 10.8-1.3 2.2-2.4 5-3.3 8.2-.1.5-.2 1-.4 1.5-1.3 5.4-2 11.8-2.3 18.1v1.3zm131.2-28.15c4.03 0 8.07.46 12.02 1.38.34-2.07.75-3.93 1.22-5.53.35-1.2.8-2.37 1.37-3.5h-29.23c.56 1.13 1.02 2.3 1.37 3.5.4 1.6.8 3.46 1.2 5.53 3.9-.92 8-1.38 12-1.38z"/>
</svg>
