<?xml version="1.0" encoding="UTF-8"?>
<svg width="600px" height="600px" viewBox="0 0 600 600" version="1.1" xmlns="http://www.w3.org/2000/svg" xmlns:xlink="http://www.w3.org/1999/xlink">
    <!-- Generator: Sketch 43.1 (39012) - http://www.bohemiancoding.com/sketch -->
    <title>Slice 2</title>
    <desc>Created with Sketch.</desc>
    <defs></defs>
    <g id="Page-1" stroke="none" stroke-width="1" fill="none" fill-rule="evenodd">
        <g id="Logo" transform="translate(83.000000, 44.000000)" fill-rule="nonzero" fill="#000000">
            <path d="M377.352027,310.371325 C395.04563,304.90411 407.95988,288.480492 407.95988,269.018051 C407.95988,265.052035 407.386745,261.09502 406.275484,257.251005 C422.654334,250.97698 433.999,235.208919 433.999,216.949847 C433.999,206.700807 430.362145,196.912769 423.938635,189.206739 C430.250119,182.810714 434,174.08968 434,164.881644 C434,154.303603 429.086845,144.453564 421.083964,137.979539 C423.826609,132.946519 425.31996,127.270497 425.31996,121.491475 C425.31996,102.3474 409.7483,86.779339 390.5998,86.779339 C390.5998,62.8542455 371.130224,43.3891695 347.1996,43.3891695 C344.005849,43.3891695 340.811098,43.7621709 337.686364,44.4821738 C334.214548,28.9831132 320.343288,17.3550678 303.7994,17.3550678 C298.452143,17.3550678 293.304933,18.5530725 288.635836,20.8440814 C280.902018,8.17503193 266.987748,0 251.72016,0 C237.536827,0 224.924863,6.83802671 217,17.3820679 C209.075137,6.83802671 196.463173,0 182.27984,0 C167.011251,0 153.097982,8.17503193 145.364164,20.8440814 C140.703068,18.5530725 135.546857,17.3550678 130.2006,17.3550678 C113.656712,17.3550678 99.7854519,28.9831132 96.3136359,44.4821738 C93.1889015,43.7621709 89.9941507,43.3891695 86.8004001,43.3891695 C62.8697758,43.3891695 43.4002,62.8542455 43.4002,86.779339 C24.2516997,86.779339 8.68004001,102.3474 8.68004001,121.491475 C8.68004001,127.271497 10.1643889,132.946519 12.9160356,137.979539 C4.92215682,144.453564 0,154.302603 0,164.881644 C0,174.08868 3.74087919,182.810714 10.0683663,189.205739 C3.63685474,196.920769 0,206.700807 0,216.948847 C0,235.206919 11.3446663,250.97498 27.7325178,257.258005 C26.6132547,261.10202 26.04012,265.059035 26.04012,269.017051 C26.04012,285.783646 35.6206334,300.314618 49.871111,307.514743 C49.9825917,307.564715 50.0952123,307.618484 50.2089844,307.676121 C52.9923133,309.086151 56.8318644,310.159707 61.0774902,310.977063 L55.9250408,306.757638 C54.0729407,305.240831 53,299.973606 53,297.580777 L53,282.371259 C53,278.266835 56.1134441,271.83087 60.197644,271.426389 L67.4793777,270.706837 C68.5320943,267.609359 70.7806652,266.776924 72.2485077,264.32023 C74.1260247,261.175269 76.1187836,258.352846 78.1603007,255.850363 L78.3524146,190.917746 C78.3524146,185.042723 79.4976838,179.358701 81.7632162,174.01268 C82.6484243,171.912672 83.7686876,169.994664 85.0099793,168.154657 C85.366063,167.633655 85.7561547,167.139653 86.1302426,166.644651 C87.1194751,165.342646 88.1877261,164.119641 89.3329953,162.965637 C89.7841013,162.514635 90.2182034,162.054633 90.6953155,161.637631 C92.2056705,160.275626 93.8030459,159.025621 95.5214497,157.931617 C95.6434784,157.853617 95.7475029,157.749616 95.8775334,157.679616 C97.7259679,156.534611 99.7144352,155.579608 101.753915,154.755605 C102.353055,154.503604 102.960198,154.321603 103.576343,154.104602 C105.0957,153.5756 106.666069,153.123598 108.263444,152.768597 C108.957608,152.620596 109.643769,152.464596 110.346934,152.343595 C112.239379,152.022594 114.15783,151.840593 116.110289,151.779593 C116.466372,151.770593 116.822456,151.710593 117.186542,151.710593 C118.713901,151.701593 120.268266,151.927593 121.821631,152.083594 C122.836869,152.187594 123.844106,152.170594 124.868347,152.343595 C127.428949,152.786597 130.006555,153.454599 132.550152,154.382603 C145.787263,159.164622 171.237245,164.882644 217.232055,164.882644 C245.979811,164.882644 266.707682,162.652635 281.429142,159.805624 C290.265219,158.095618 296.94879,156.17861 301.922959,154.381603 C302.56511,154.138602 303.216263,154.069602 303.867416,153.860601 C319.621118,148.957582 335.92295,153.174598 345.930302,163.86664 C348.681948,166.817652 351.068509,170.140665 352.709895,174.00268 C354.975427,179.365701 356.112695,185.049723 356.112695,190.915746 L356.112695,250.469259 C359.309816,253.121367 362.435014,256.652697 365.221493,261.32023 C366.688272,263.776924 367.936842,266.609359 368.989559,269.706837 L376.272357,270.426389 C380.356557,270.829806 383.470001,274.265771 383.470001,278.371259 L383.470001,297.580777 C383.470001,299.973606 382.39706,306.240831 380.54496,307.756573 L377.352015,310.371329 Z" id="Hair-w-glasses-cut"></path>
            <path d="M296.040786,392.588939 C287.276648,376.649629 261.014579,368.017904 252.421475,365.565491 C251.524924,365.26756 246.457337,364.332387 244.791131,364.332387 C236.887682,364.332387 225.941475,364.161353 218.209062,366.715835 C210.476648,364.161353 199.530441,364.332387 191.629751,364.332387 C189.963544,364.332387 184.901475,365.26756 183.996648,365.565491 C175.409062,368.017904 149.149751,376.652387 140.382855,392.588939 C129.844924,411.74756 145.649062,395.943422 145.649062,395.943422 C145.649062,395.943422 134.153889,416.536525 139.422855,422.762732 C144.69182,428.988939 149.960786,417.90756 149.960786,417.90756 C149.960786,417.90756 141.820096,437.044111 152.835268,442.348939 C163.850441,447.662042 158.581475,437.12687 175.342855,431.380663 C186.67251,427.493766 206.520786,414.420663 218.209062,399.399973 C229.889062,414.417904 249.742855,427.493766 261.07251,431.380663 C277.833889,437.12687 272.567682,447.662042 283.582855,442.348939 C294.595268,437.038594 286.454579,417.90756 286.454579,417.90756 C286.454579,417.90756 291.723544,428.988939 296.99251,422.762732 C302.258717,416.533766 290.763544,395.943422 290.763544,395.943422 C290.763544,395.943422 306.578717,411.744801 296.040786,392.588939 Z" id="Moustache"></path>
            <path d="M315.192,359.272852 C294.545,359.272852 256.112,359.272852 240.606,334.628852 C236.83,328.627852 234.176,322.133852 232.393,315.628852 L225.304,306.774852 C222.715,303.541852 223.238,298.820852 226.471,296.232852 C227.34,295.536852 228.317,295.065852 229.331,294.811852 C229.33,294.765852 229.328,294.719852 229.327,294.673852 C222.104,292.466852 214.363,292.466852 207.142,294.673852 C207.141,294.719852 207.14,294.765852 207.138,294.811852 C208.152,295.065852 209.129,295.536852 209.998,296.232852 C213.231,298.820852 213.754,303.541852 211.165,306.774852 L204.076,315.628852 C202.292,322.132852 199.638,328.627852 195.862,334.628852 C180.357,359.272852 141.924,359.272852 121.277,359.272852 C87.956,359.272852 78.087,345.814852 75.17,337.793852 C73.276,332.585852 71.897,321.217852 72.06,308.751852 L65.748,303.582852 C64.008,302.157852 63,300.027852 63,297.779852 L63,285.369852 C63,281.513852 65.925,278.285852 69.762,277.905852 L76.603,277.229852 C77.592,274.319852 78.765,271.658852 80.144,269.350852 C89.115,254.323852 101.826,250.892852 108.181,251.220852 L147.699,251.220852 C147.741,251.220852 147.782,251.220852 147.824,251.221852 C148.406,251.231852 162.213,251.477852 173.803,253.133852 L173.803,253.133852 C177.341,253.638852 180.656,254.393852 183.712,255.373852 L252.756,255.373852 C255.813,254.393852 259.128,253.638852 262.665,253.133852 L262.665,253.133852 C274.255,251.477852 288.062,251.231852 288.644,251.221852 C288.686,251.221852 288.727,251.220852 288.769,251.220852 L328.287,251.220852 C334.645,250.892852 347.353,254.323852 356.324,269.350852 C357.702,271.658852 358.875,274.319852 359.864,277.229852 L366.706,277.905852 C370.543,278.284852 373.468,281.512852 373.468,285.369852 L373.468,297.779852 C373.468,300.027852 372.46,302.157852 370.72,303.581852 L364.408,308.750852 C364.571,321.216852 363.192,332.583852 361.298,337.792852 C358.383,345.814852 348.514,359.272852 315.192,359.272852 Z M246.537,310.653852 C247.948,316.089852 250.114,321.572852 253.302,326.640852 C264.396,344.272852 297.44,344.272852 315.192,344.272852 C332.593,344.272852 344.56,339.934852 347.203,332.667852 C348.782,328.325852 349.802,317.502852 349.415,306.170852 C349.363,305.749852 349.347,305.324852 349.366,304.902852 C349.093,298.615852 348.38,292.240852 347.082,286.788852 C346.902,286.300852 346.771,285.788852 346.696,285.262852 C345.842,282.074852 344.77,279.258852 343.446,277.040852 C337.276,266.705852 329.977,266.227852 328.994,266.210852 C328.777,266.236852 328.806,266.220852 328.518,266.220852 L288.839,266.220852 C287.877,266.239852 275.076,266.512852 264.787,267.983852 L264.787,267.983852 C261.873,268.399852 259.141,269.056852 256.704,269.891852 C256.583,269.937852 256.462,269.979852 256.339,270.018852 C250.753,271.998852 246.788,274.927852 245.888,278.037852 C245.165,280.535852 244.54,284.368852 244.33,288.988852 C244.366,289.499852 244.349,290.016852 244.277,290.532852 C244.14,296.248852 244.647,303.002852 246.339,309.866852 C246.419,310.126852 246.485,310.389852 246.537,310.653852 Z M87.054,306.173852 C86.667,317.504852 87.688,328.326852 89.266,332.667852 C91.909,339.934852 103.875,344.272852 121.277,344.272852 C139.029,344.272852 172.073,344.272852 183.167,326.640852 C186.356,321.572852 188.522,316.089852 189.933,310.653852 C189.985,310.388852 190.051,310.126852 190.132,309.867852 C191.824,303.002852 192.331,296.249852 192.194,290.533852 C192.122,290.017852 192.105,289.500852 192.141,288.989852 C191.932,284.369852 191.307,280.536852 190.583,278.038852 C189.683,274.928852 185.718,272.000852 180.132,270.019852 C180.009,269.979852 179.887,269.937852 179.767,269.892852 C177.33,269.057852 174.597,268.400852 171.684,267.984852 C161.395,266.514852 148.594,266.240852 147.632,266.221852 L107.951,266.221852 C107.664,266.221852 107.694,266.237852 107.475,266.211852 C106.492,266.227852 99.194,266.705852 93.023,277.041852 C91.699,279.258852 90.626,282.074852 89.773,285.262852 C89.698,285.789852 89.567,286.301852 89.387,286.790852 C88.089,292.241852 87.376,298.614852 87.103,304.900852 C87.123,305.323852 87.106,305.749852 87.054,306.173852 Z M218.234,278.020852 C222.271,278.020852 226.307,278.480852 230.26,279.401852 C230.6,277.330852 231.015,275.469852 231.479,273.867852 C231.827,272.664852 232.285,271.499852 232.847,270.374852 L203.623,270.374852 C204.185,271.499852 204.643,272.665852 204.991,273.867852 C205.455,275.469852 205.869,277.330852 206.21,279.401852 C210.161,278.480852 214.198,278.020852 218.234,278.020852 Z" id="Glasses"></path>
        </g>
    </g>
</svg>